<?xml version="1.0" encoding="UTF-8" standalone="no"?>
<!-- Created with Inkscape (http://www.inkscape.org/) -->

<svg
   xmlns:dc="http://purl.org/dc/elements/1.1/"
   xmlns:cc="http://creativecommons.org/ns#"
   xmlns:rdf="http://www.w3.org/1999/02/22-rdf-syntax-ns#"
   xmlns:svg="http://www.w3.org/2000/svg"
   xmlns="http://www.w3.org/2000/svg"
   xmlns:sodipodi="http://sodipodi.sourceforge.net/DTD/sodipodi-0.dtd"
   xmlns:inkscape="http://www.inkscape.org/namespaces/inkscape"
   width="89"
   height="74"
   id="svg3891"
   version="1.1"
   inkscape:version="0.48+devel r13511"
   viewBox="0 0 8.8570004 7.4400002"
   sodipodi:docname="red_alpannonia.svg">
  <defs
     id="defs3893" />
  <sodipodi:namedview
     id="base"
     pagecolor="#ffffff"
     bordercolor="#666666"
     borderopacity="1.0"
     inkscape:pageopacity="0.0"
     inkscape:pageshadow="2"
     inkscape:zoom="11.2"
     inkscape:cx="35.970129"
     inkscape:cy="39.53746"
     inkscape:document-units="px"
     inkscape:current-layer="layer1"
     showgrid="false"
     showborder="true"
     inkscape:showpageshadow="true"
     borderlayer="false"
     inkscape:window-width="1920"
     inkscape:window-height="1134"
     inkscape:window-x="0"
     inkscape:window-y="27"
     inkscape:window-maximized="1" />
  <metadata
     id="metadata3896">
    <rdf:RDF>
      <cc:Work
         rdf:about="">
        <dc:format>image/svg+xml</dc:format>
        <dc:type
           rdf:resource="http://purl.org/dc/dcmitype/StillImage" />
        <dc:title></dc:title>
      </cc:Work>
    </rdf:RDF>
  </metadata>
  <g
     inkscape:label="Layer 1"
     inkscape:groupmode="layer"
     id="layer1"
     transform="translate(0,-1044.9222)">
    <path
       inkscape:connector-curvature="0"
       d="m 0.17687493,1045.0978 8.50374997,0 0,7.0863 -8.50374997,0 0,-7.0863 z"
       style="fill:#ed1c24;fill-opacity:1;fill-rule:nonzero;stroke:none"
       id="path6062" />
    <path
       inkscape:connector-curvature="0"
       style="fill:none;stroke:#231f20;stroke-width:0.35374999;stroke-linecap:butt;stroke-linejoin:miter;stroke-miterlimit:3;stroke-dasharray:none;stroke-opacity:1"
       d="m 0.17687493,1052.1853 8.50374997,0 0,-7.0862 -8.50374997,0 0,7.0862 z"
       id="path5755" />
    <path
       style="fill:#ffffff;fill-opacity:1"
       d="m 5.8984202,1051.1164 c -0.8342897,-0.036 -1.9037292,-0.1741 -2.434538,-0.3113 -1.2230934,-0.3159 -1.6952007,-0.7936 -1.4559602,-1.4733 0.2079415,-0.5905 0.7950331,-1.061 1.6193381,-1.2972 0.5265634,-0.1511 0.9179751,-0.1279 0.463337,0.027 -0.6078489,0.2078 -0.9439224,0.478 -1.1293003,0.9083 -0.1539253,0.3573 -0.1489492,0.5151 0.022223,0.7055 0.1225465,0.136 0.6770238,0.4773 0.7108786,0.4372 0.00686,-0.014 -0.018744,-0.1532 -0.056869,-0.3224 -0.059002,-0.2619 -0.051355,-0.3547 0.051412,-0.625 0.1362901,-0.3583 0.7168366,-1.0668 1.1240861,-1.372 0.1490672,-0.1114 0.3209879,-0.3138 0.3820456,-0.4494 l 0.1110139,-0.2464 -0.1957067,-0.2078 c -0.2094728,-0.2227 -0.7163282,-0.4739 -1.2323764,-0.611 -0.501463,-0.1332 -0.1655584,-0.1519 0.4538478,-0.025 0.738474,0.1508 1.2121675,0.3673 1.4081033,0.643 0.2753787,0.3878 0.2246002,0.5427 -0.4089635,1.249 -0.523597,0.5833 -0.5698882,0.658 -0.5992769,0.9669 -0.071559,0.7519 0.5391548,1.3809 1.6131273,1.6614 0.4374523,0.115 0.6098426,0.2038 0.543432,0.2826 -0.04375,0.053 -0.517023,0.079 -0.9898541,0.059 z"
       id="path3051"
       inkscape:connector-curvature="0" />
  </g>
</svg>
