<?xml version="1.0" encoding="UTF-8" standalone="no"?>
<!-- Created with Inkscape (http://www.inkscape.org/) -->

<svg
   xmlns:dc="http://purl.org/dc/elements/1.1/"
   xmlns:cc="http://creativecommons.org/ns#"
   xmlns:rdf="http://www.w3.org/1999/02/22-rdf-syntax-ns#"
   xmlns:svg="http://www.w3.org/2000/svg"
   xmlns="http://www.w3.org/2000/svg"
   xmlns:sodipodi="http://sodipodi.sourceforge.net/DTD/sodipodi-0.dtd"
   xmlns:inkscape="http://www.inkscape.org/namespaces/inkscape"
   width="89"
   height="74"
   id="svg3891"
   version="1.1"
   inkscape:version="0.48+devel r13511"
   viewBox="0 0 8.8570004 7.4400002"
   sodipodi:docname="osmc_yellow_white___m_yellow.svg">
  <defs
     id="defs3893" />
  <sodipodi:namedview
     id="base"
     pagecolor="#ffffff"
     bordercolor="#666666"
     borderopacity="1.0"
     inkscape:pageopacity="0.0"
     inkscape:pageshadow="2"
     inkscape:zoom="5.6"
     inkscape:cx="8.4644283"
     inkscape:cy="3.9885714"
     inkscape:document-units="px"
     inkscape:current-layer="layer1"
     showgrid="false"
     showborder="true"
     inkscape:showpageshadow="true"
     borderlayer="false"
     inkscape:window-width="767"
     inkscape:window-height="432"
     inkscape:window-x="960"
     inkscape:window-y="608"
     inkscape:window-maximized="0" />
  <metadata
     id="metadata3896">
    <rdf:RDF>
      <cc:Work
         rdf:about="">
        <dc:format>image/svg+xml</dc:format>
        <dc:type
           rdf:resource="http://purl.org/dc/dcmitype/StillImage" />
        <dc:title></dc:title>
      </cc:Work>
    </rdf:RDF>
  </metadata>
  <g
     inkscape:label="Layer 1"
     inkscape:groupmode="layer"
     id="layer1"
     transform="translate(0,-1044.9222)">
    <path
       inkscape:connector-curvature="0"
       d="m 0.17687488,1045.0991 8.50375002,0 0,7.0862 -8.50375002,0 0,-7.0862 z"
       style="fill:#ffffff;fill-opacity:1;fill-rule:nonzero;stroke:none"
       id="path6156" />
    <path
       inkscape:connector-curvature="0"
       d="m 0.96687488,1050.5903 0,-2.99 0.02,-0.17 0.06125,-0.1525 0.14,-0.2312 0.155,-0.1588 0.225,-0.1587 0.23875,-0.13 0.2875,-0.097 0.31875,-0.08 0.31875,-0.05 0.27375,-0.01 0.3175,0.043 0.2475,0.071 0.2125,0.1025 0.155,0.1063 0.0725,0.045 0.095,0.02 0.0825,-0.011 0.08375,-0.035 0.1325,-0.11 0.1675,-0.1025 0.185,-0.075 0.2175,-0.046 0.26875,-0.011 0.2925,0.015 0.16,0.027 0.22,0.045 0.22375,0.072 0.205,0.08 0.2475,0.1288 0.17,0.125 0.1525,0.1362 0.11375,0.1513 0.075,0.1362 0.05,0.1075 0.0225,0.1088 0.01125,0.13 0,2.3512 0.02375,0.08 0.07125,0.096 0.1175,0.021 0.1175,-0.016 0.0925,-0.043 0.13,-0.013 0.12125,0.046 0.10125,0.092 0.075,0.1638 -0.0125,0.175 -0.06625,0.1387 -0.15125,0.1463 -0.16375,0.084 -0.17625,0.051 -0.185,0 -0.15875,-0.021 -0.21875,-0.046 -0.17125,-0.08 -0.16,-0.13 -0.17125,-0.175 -0.08375,-0.1138 -0.06375,-0.1425 -0.025,-0.096 -0.0125,-0.135 0,-2.3375 -0.02125,-0.096 -0.05875,-0.096 -0.1175,-0.1 -0.14625,-0.085 -0.15125,-0.054 -0.14625,-0.034 -0.185,0 -0.18375,0.013 -0.19,0.05 -0.155,0.067 -0.1175,0.096 -0.0875,0.1125 -0.05,0.1137 -0.0175,0.1013 0,0.355 0.02125,0.1062 0.08,0.1138 0.15875,0.084 0.1725,0.054 0.185,0.06 0.14125,0.059 0.11,0.1213 0.07125,0.1887 0.0038,0.1625 -0.0625,0.1438 -0.09625,0.07 -0.1675,0.039 -0.235,0.01 -0.16875,0.012 -0.14625,0.03 -0.0625,0.029 -0.03375,0.096 0,1.1213 -0.02125,0.1012 -0.0675,0.084 -0.08,0.05 -0.1375,0.029 -0.34,0 -0.105,-0.016 -0.11,-0.055 -0.06625,-0.062 -0.03375,-0.068 -0.0087,-0.084 0,-1.165 -0.04625,-0.044 -0.09625,-0.034 -0.185,-0.029 -0.18375,-0.012 -0.1725,-0.01 -0.105,-0.025 -0.10875,-0.071 -0.0675,-0.1463 -0.0038,-0.135 0.03375,-0.1375 0.07875,-0.1262 0.085,-0.075 0.1375,-0.059 0.16375,-0.043 0.15125,-0.059 0.1125,-0.059 0.085,-0.059 0.0575,-0.066 0.03375,-0.064 0.0125,-0.1125 0,-0.315 -0.01625,-0.087 -0.05875,-0.1213 -0.105,-0.1175 -0.15125,-0.1087 -0.18,-0.071 -0.13875,-0.03 -0.18,0 -0.22625,0.016 -0.20125,0.062 -0.18,0.085 -0.12625,0.1088 -0.05875,0.1087 -0.02125,0.1175 0,2.8388 -0.0012,0.046 -0.0075,0.072 -0.02625,0.077 -0.04375,0.065 -0.04625,0.033 -0.0575,0.021 -0.0875,0.01 -0.41375,0 -0.075,-0.025 -0.0675,-0.044 -0.05625,-0.06 -0.0425,-0.06 -0.02375,-0.064 -0.01375,-0.071"
       style="fill:#faa80d;fill-opacity:1;fill-rule:evenodd;stroke:none"
       id="path6158" />
    <path
       inkscape:connector-curvature="0"
       d="m 0.17687488,1052.1853 8.50375002,0 0,-7.0862 -8.50375002,0 z"
       style="fill:none;stroke:#231f20;stroke-width:0.35374999;stroke-linecap:butt;stroke-linejoin:miter;stroke-miterlimit:3;stroke-dasharray:none;stroke-opacity:1"
       id="path6448"
       sodipodi:nodetypes="ccccc" />
  </g>
</svg>
