<?xml version="1.0" encoding="UTF-8" standalone="no"?>
<!-- Created with Inkscape (http://www.inkscape.org/) -->

<svg
   xmlns:dc="http://purl.org/dc/elements/1.1/"
   xmlns:cc="http://creativecommons.org/ns#"
   xmlns:rdf="http://www.w3.org/1999/02/22-rdf-syntax-ns#"
   xmlns:svg="http://www.w3.org/2000/svg"
   xmlns="http://www.w3.org/2000/svg"
   xmlns:sodipodi="http://sodipodi.sourceforge.net/DTD/sodipodi-0.dtd"
   xmlns:inkscape="http://www.inkscape.org/namespaces/inkscape"
   width="89"
   height="74"
   id="svg3891"
   version="1.1"
   inkscape:version="0.48+devel r13511"
   viewBox="0 0 8.8570004 7.4400002"
   sodipodi:docname="osmc_yellow_white___SG_yellow.svg">
  <defs
     id="defs3893" />
  <sodipodi:namedview
     id="base"
     pagecolor="#ffffff"
     bordercolor="#666666"
     borderopacity="1.0"
     inkscape:pageopacity="0.0"
     inkscape:pageshadow="2"
     inkscape:zoom="5.6"
     inkscape:cx="38.107285"
     inkscape:cy="3.9885714"
     inkscape:document-units="px"
     inkscape:current-layer="layer1"
     showgrid="false"
     showborder="true"
     inkscape:showpageshadow="true"
     borderlayer="false"
     inkscape:window-width="767"
     inkscape:window-height="432"
     inkscape:window-x="1128"
     inkscape:window-y="608"
     inkscape:window-maximized="0" />
  <metadata
     id="metadata3896">
    <rdf:RDF>
      <cc:Work
         rdf:about="">
        <dc:format>image/svg+xml</dc:format>
        <dc:type
           rdf:resource="http://purl.org/dc/dcmitype/StillImage" />
        <dc:title></dc:title>
      </cc:Work>
    </rdf:RDF>
  </metadata>
  <g
     inkscape:label="Layer 1"
     inkscape:groupmode="layer"
     id="layer1"
     transform="translate(0,-1044.9222)">
    <path
       inkscape:connector-curvature="0"
       d="m 0.17687493,1045.0978 8.50374997,0 0,7.0863 -8.50374997,0 0,-7.0863 z"
       style="fill:#ffffff;fill-opacity:1;fill-rule:nonzero;stroke:none"
       id="path6040" />
    <path
       inkscape:connector-curvature="0"
       d="m 6.2206249,1046.1766 -0.20125,-0.092 -0.22125,-0.01 -0.2075,0.076 -0.1625,0.15 -0.0925,0.2012 -0.0087,0.2213 0.07625,0.2075 0.15125,0.1625 0.2,0.092 0.22125,0.01 0.2075,-0.078 0.1625,-0.15 0.0925,-0.2 0.0088,-0.2212 -0.07625,-0.2075 -0.15,-0.1625"
       style="fill:#f9a70d;fill-opacity:1;fill-rule:evenodd;stroke:none"
       id="path6246" />
    <path
       inkscape:connector-curvature="0"
       d="m 7.3268749,1047.7003 -0.1075,-0.1937 -0.17375,-0.1363 -0.2125,-0.06 -0.22,0.026 -0.19375,0.1075 -0.13625,0.1737 -0.06,0.2125 0.02625,0.22 0.1075,0.1925 0.17375,0.1375 0.2125,0.06 0.22,-0.026 0.19375,-0.1075 0.13625,-0.1738 0.06,-0.2137 -0.02625,-0.2188"
       style="fill:#f9a70d;fill-opacity:1;fill-rule:evenodd;stroke:none"
       id="path6248" />
    <path
       inkscape:connector-curvature="0"
       d="m 7.3268749,1049.5841 0.02625,-0.22 -0.06,-0.2138 -0.13625,-0.1737 -0.19375,-0.1075 -0.22,-0.026 -0.2125,0.06 -0.17375,0.1375 -0.1075,0.1925 -0.02625,0.22 0.06,0.2125 0.13625,0.1738 0.19375,0.1087 0.22,0.025 0.2125,-0.06 0.17375,-0.1362 0.1075,-0.1925"
       style="fill:#f9a70d;fill-opacity:1;fill-rule:evenodd;stroke:none"
       id="path6250" />
    <path
       inkscape:connector-curvature="0"
       d="m 6.2206249,1051.1066 0.15,-0.1625 0.07625,-0.2075 -0.0088,-0.22 -0.0925,-0.2013 -0.1625,-0.15 -0.2075,-0.077 -0.22125,0.01 -0.2,0.094 -0.15125,0.1613 -0.07625,0.2075 0.0087,0.2212 0.0925,0.2013 0.1625,0.15 0.2075,0.076 0.22125,-0.01 0.20125,-0.092"
       style="fill:#f9a70d;fill-opacity:1;fill-rule:evenodd;stroke:none"
       id="path6252" />
    <path
       inkscape:connector-curvature="0"
       d="m 4.4293749,1051.6891 0.21625,-0.044 0.18375,-0.1225 0.12375,-0.1837 0.0425,-0.2175 -0.0425,-0.2163 -0.12375,-0.1837 -0.18375,-0.1238 -0.21625,-0.043 -0.2175,0.043 -0.18375,0.1238 -0.1225,0.1837 -0.04375,0.2163 0.04375,0.2175 0.1225,0.1837 0.18375,0.1225 0.2175,0.044"
       style="fill:#f9a70d;fill-opacity:1;fill-rule:evenodd;stroke:none"
       id="path6254" />
    <path
       inkscape:connector-curvature="0"
       d="m 2.6381249,1051.1066 0.20125,0.092 0.22,0.01 0.20875,-0.076 0.16125,-0.15 0.0925,-0.2013 0.0087,-0.2212 -0.07625,-0.2075 -0.15,-0.1613 -0.20125,-0.094 -0.22125,-0.01 -0.20625,0.077 -0.1625,0.15 -0.0925,0.2013 -0.01,0.22 0.0775,0.2075 0.15,0.1625"
       style="fill:#f9a70d;fill-opacity:1;fill-rule:evenodd;stroke:none"
       id="path6256" />
    <path
       inkscape:connector-curvature="0"
       d="m 1.5306249,1049.5841 0.10875,0.1925 0.17375,0.1362 0.2125,0.06 0.22,-0.025 0.1925,-0.1087 0.1375,-0.1738 0.06,-0.2125 -0.02625,-0.22 -0.10875,-0.1925 -0.1725,-0.1375 -0.21375,-0.06 -0.22,0.026 -0.1925,0.1075 -0.13625,0.1737 -0.06,0.2138 0.025,0.22"
       style="fill:#f9a70d;fill-opacity:1;fill-rule:evenodd;stroke:none"
       id="path6258" />
    <path
       inkscape:connector-curvature="0"
       d="m 1.5306249,1047.7003 -0.025,0.2188 0.06,0.2137 0.13625,0.1738 0.1925,0.1075 0.22,0.026 0.21375,-0.06 0.1725,-0.1375 0.10875,-0.1925 0.02625,-0.22 -0.06,-0.2125 -0.1375,-0.1737 -0.1925,-0.1075 -0.22,-0.026 -0.2125,0.06 -0.17375,0.1363 -0.10875,0.1937"
       style="fill:#f9a70d;fill-opacity:1;fill-rule:evenodd;stroke:none"
       id="path6260" />
    <path
       inkscape:connector-curvature="0"
       d="m 2.6381249,1046.1766 -0.15,0.1625 -0.0775,0.2075 0.01,0.2212 0.0925,0.2 0.1625,0.15 0.20625,0.078 0.22125,-0.01 0.20125,-0.092 0.15,-0.1625 0.07625,-0.2075 -0.0087,-0.2213 -0.0925,-0.2012 -0.16125,-0.15 -0.20875,-0.076 -0.22,0.01 -0.20125,0.092"
       style="fill:#f9a70d;fill-opacity:1;fill-rule:evenodd;stroke:none"
       id="path6262" />
    <path
       inkscape:connector-curvature="0"
       d="m 4.4293749,1045.5941 -0.2175,0.044 -0.18375,0.1225 -0.1225,0.1838 -0.04375,0.2175 0.04375,0.2162 0.1225,0.1838 0.18375,0.1237 0.2175,0.042 0.21625,-0.042 0.18375,-0.1237 0.12375,-0.1838 0.0425,-0.2162 -0.0425,-0.2175 -0.12375,-0.1838 -0.18375,-0.1225 -0.21625,-0.044"
       style="fill:#f9a70d;fill-opacity:1;fill-rule:evenodd;stroke:none"
       id="path6264" />
    <path
       inkscape:connector-curvature="0"
       style="fill:none;stroke:#231f20;stroke-width:0.35374999;stroke-linecap:butt;stroke-linejoin:miter;stroke-miterlimit:3;stroke-dasharray:none;stroke-opacity:1"
       d="m 0.17687493,1052.1853 8.50374997,0 0,-7.0862 -8.50374997,0 0,7.0862 z"
       id="path5689" />
  </g>
</svg>
