<?xml version="1.0" encoding="UTF-8" standalone="no"?>
<!-- Created with Inkscape (http://www.inkscape.org/) -->

<svg
   xmlns:dc="http://purl.org/dc/elements/1.1/"
   xmlns:cc="http://creativecommons.org/ns#"
   xmlns:rdf="http://www.w3.org/1999/02/22-rdf-syntax-ns#"
   xmlns:svg="http://www.w3.org/2000/svg"
   xmlns="http://www.w3.org/2000/svg"
   xmlns:sodipodi="http://sodipodi.sourceforge.net/DTD/sodipodi-0.dtd"
   xmlns:inkscape="http://www.inkscape.org/namespaces/inkscape"
   width="16"
   height="13"
   id="svg3891"
   version="1.1"
   inkscape:version="0.48+devel r13511"
   viewBox="0 0 8.8570004 7.4400002"
   sodipodi:docname="osmc_green_white_green_feather.svg">
  <defs
     id="defs3893" />
  <sodipodi:namedview
     id="base"
     pagecolor="#ffffff"
     bordercolor="#666666"
     borderopacity="1.0"
     inkscape:pageopacity="0.0"
     inkscape:pageshadow="2"
     inkscape:zoom="5.6"
     inkscape:cx="38.107285"
     inkscape:cy="3.9885714"
     inkscape:document-units="px"
     inkscape:current-layer="layer1"
     showgrid="false"
     showborder="true"
     inkscape:showpageshadow="true"
     borderlayer="false"
     inkscape:window-width="767"
     inkscape:window-height="432"
     inkscape:window-x="1128"
     inkscape:window-y="608"
     inkscape:window-maximized="0" />
  <metadata
     id="metadata3896">
    <rdf:RDF>
      <cc:Work
         rdf:about="">
        <dc:format>image/svg+xml</dc:format>
        <dc:type
           rdf:resource="http://purl.org/dc/dcmitype/StillImage" />
        <dc:title></dc:title>
      </cc:Work>
    </rdf:RDF>
  </metadata>
  <g
     inkscape:label="Layer 1"
     inkscape:groupmode="layer"
     id="layer1"
     transform="translate(0,-1044.9222)">
    <path
       inkscape:connector-curvature="0"
       d="m 0.17687493,1045.0991 8.50374997,0 0,7.0862 -8.50374997,0 0,-7.0862 z"
       style="fill:#ffffff;fill-opacity:1;fill-rule:nonzero;stroke:none"
       id="path5990" />
    <path
       inkscape:connector-curvature="0"
       d="m 0.76062493,1049.7591 0.15125,0.072 0.16374997,0.024 -0.13624997,-0.076 -0.02625,-0.1613 0.10874997,-0.1287 0.14375,-0.08 0.10125,-0.1275 0.1475,-0.059 0.13,-0.1037 0.0975,-0.1563 0.08875,-0.1287 0.15875,-0.043 0.0925,0.1225 0.0475,0.1525 0.16375,-0.058 0.05125,-0.1488 -0.005,-0.1637 -0.01625,-0.16 -0.025,-0.1513 -0.0012,-0.1537 0.04,-0.1613 0.08,-0.1462 0.0975,-0.1338 0.13125,-0.097 0.16875,0.021 0.1525,0.046 0.1075,0.1288 0.0475,0.155 0.0375,0.1837 0.05125,0.1538 0.1525,0 0.09875,-0.1312 0.0575,-0.155 0.05875,-0.1713 0.095,-0.2662 0.05625,-0.1463 0.06625,-0.1587 0.0975,-0.1863 0.1025,-0.1562 0.10875,-0.1363 0.12,-0.1137 0.15875,-0.092 0.16375,-0.03 0.1425,0.072 0.11375,0.135 0.055,0.1525 0.01,0.1962 -0.01125,0.1663 -0.005,0.1587 0.1525,-0.017 0.10375,-0.1775 0.0975,-0.13 0.11375,-0.1237 0.1,-0.1413 0.08125,-0.1375 0.1075,-0.1475 0.11,-0.1137 0.12375,-0.097 0.135,-0.072 0.16375,-0.05 0.1525,-0.011 0.15,0.062 0.10625,0.13 0.06125,0.14 0.01375,0.1713 -0.03875,0.1712 -0.04375,0.1475 0.03625,0.1488 0.16,-0.071 0.12,-0.1137 0.1475,-0.076 0.1575,-0.017 0.16125,0.046 0.1075,0.135 0.025,0.155 -0.0037,0.1587 0.13875,0.062 0.1575,-0.026 0.1725,0.013 0.1525,0.06 0.08375,0.1537 0.0525,0.145 -0.0625,0.1563 -0.11125,0.115 -0.1425,0.082 -0.13875,0.07 0.09875,0.1287 0.03375,0.15 -0.03375,0.1538 -0.12125,0.1187 -0.15,0.059 -0.155,0.034 -0.13375,0.078 0.09375,0.1513 0.08375,0.1337 -0.005,0.1688 -0.055,0.145 -0.11625,0.1062 -0.15125,0.05 -0.1825,0.01 -0.1725,-0.033 -0.15125,-0.039 -0.16625,-0.033 -0.15125,-0.054 -0.03125,0.155 0.12375,0.1213 0.0975,0.1512 0.0375,0.1813 -0.01875,0.155 -0.11375,0.1237 -0.15875,0.059 -0.15125,0.016 -0.17875,-0.011 -0.16,-0.034 -0.15625,-0.053 -0.13125,-0.099 -0.09625,-0.1413 -0.11125,-0.1137 -0.1475,-0.071 -0.155,0.02 -0.05,0.145 0.0825,0.1488 0.06625,0.1512 0.0025,0.1588 -0.1,0.1312 -0.1425,0.07 -0.1775,0 -0.19375,-0.04 -0.18875,-0.06 -0.17125,-0.051 -0.15875,-0.074 -0.1225,-0.13 -0.0875,-0.145 -0.1375,-0.1013 -0.15625,-0.053 -0.15875,0.024 -0.01,0.1575 0.035,0.1562 -0.09875,0.1188 -0.15125,0.034 -0.1525,0.01 -0.17125,-0.011 -0.145,-0.051 -0.13375,-0.099 -0.09,-0.1513 -0.165,0.03 -0.155,-0.046 -0.15375,-0.051 -0.09875,-0.1187 -0.11625,0.1125 -0.17375,0.064 -0.15875,0 -0.1275,-0.095 -0.07625,-0.1425 0,-0.1575 0.1525,-0.041 -0.1775,0 -0.15624997,0.01 -0.12375,-0.017 0.0325,-0.2237"
       style="fill:#33b540;fill-opacity:1;fill-rule:evenodd;stroke:none"
       id="path6168" />
    <path
       inkscape:connector-curvature="0"
       style="fill:none;stroke:#231f20;stroke-width:0.35374999;stroke-linecap:butt;stroke-linejoin:miter;stroke-miterlimit:3;stroke-dasharray:none;stroke-opacity:1"
       d="m 0.17687493,1052.1853 8.50374997,0 0,-7.0862 -8.50374997,0 0,7.0862 z"
       id="path5651" />
  </g>
</svg>
