<?xml version="1.0" encoding="UTF-8" standalone="no"?>
<!-- Created with Inkscape (http://www.inkscape.org/) -->

<svg
   xmlns:dc="http://purl.org/dc/elements/1.1/"
   xmlns:cc="http://creativecommons.org/ns#"
   xmlns:rdf="http://www.w3.org/1999/02/22-rdf-syntax-ns#"
   xmlns:svg="http://www.w3.org/2000/svg"
   xmlns="http://www.w3.org/2000/svg"
   xmlns:sodipodi="http://sodipodi.sourceforge.net/DTD/sodipodi-0.dtd"
   xmlns:inkscape="http://www.inkscape.org/namespaces/inkscape"
   width="16"
   height="13"
   id="svg3891"
   version="1.1"
   inkscape:version="0.48+devel r13511"
   viewBox="0 0 8.8570004 7.4400002"
   sodipodi:docname="osmc_yellow_white_yellow_bicycle.svg">
  <defs
     id="defs3893" />
  <sodipodi:namedview
     id="base"
     pagecolor="#ffffff"
     bordercolor="#666666"
     borderopacity="1.0"
     inkscape:pageopacity="0.0"
     inkscape:pageshadow="2"
     inkscape:zoom="5.6"
     inkscape:cx="38.107285"
     inkscape:cy="3.9885714"
     inkscape:document-units="px"
     inkscape:current-layer="layer1"
     showgrid="false"
     showborder="true"
     inkscape:showpageshadow="true"
     borderlayer="false"
     inkscape:window-width="767"
     inkscape:window-height="432"
     inkscape:window-x="1128"
     inkscape:window-y="608"
     inkscape:window-maximized="0" />
  <metadata
     id="metadata3896">
    <rdf:RDF>
      <cc:Work
         rdf:about="">
        <dc:format>image/svg+xml</dc:format>
        <dc:type
           rdf:resource="http://purl.org/dc/dcmitype/StillImage" />
        <dc:title></dc:title>
      </cc:Work>
    </rdf:RDF>
  </metadata>
  <g
     inkscape:label="Layer 1"
     inkscape:groupmode="layer"
     id="layer1"
     transform="translate(0,-1044.9222)">
    <path
       inkscape:connector-curvature="0"
       d="m 0.17687493,1045.0978 8.50374997,0 0,7.0863 -8.50374997,0 0,-7.0863 z"
       style="fill:#ffffff;fill-opacity:1;fill-rule:nonzero;stroke:none"
       id="path6056" />
    <path
       inkscape:connector-curvature="0"
       d="m 2.478125,1048.1003 0.01375,-0.07 0.0875,-0.2012 0.20125,-0.3488 0.49625,-0.8237 0.1175,-0.1588 0.1225,-0.1025 0.1725,-0.074 0.22625,0.01 0.31375,0.084 0.39,0.17 0.42,0.225 0.39875,0.275 0.3700001,0.3125 0.28125,0.2863 0.09875,0.2112 0.02125,0.2425 -0.13375,0.2075 -0.18,0.1413 -1.5225001,0.7662 -0.1225,0.07 -0.0175,0.066 0.04875,0.1312 0.17375,0.275 0.16125,0.275 0.36625,0.6938 0.02125,0.077 -0.0175,0.035 -0.08375,-0.01 -0.10625,-0.064 -0.215,-0.1937 -0.37,-0.4013 -0.46875,-0.56 -0.1125,-0.1762 -0.05625,-0.1625 -0.01125,-0.1575 0.05,-0.1338 0.14375,-0.1512 0.21875,-0.145 0.56375,-0.3288 0.3275,-0.1837 0.08125,-0.07 0.01375,-0.1025 -0.0525,-0.1063 -0.20125,-0.1512 -1.015,-0.6688 -0.0275,-0.01 -0.06,0.025 -0.27875,0.335 -0.14375,0.1475 -0.215,0.19 -0.21875,0.18 -0.13,0.091 -0.07875,0.035 -0.0625,0"
       style="fill:#f9a70d;fill-opacity:1;fill-rule:evenodd;stroke:none"
       id="path6280" />
    <path
       inkscape:connector-curvature="0"
       d="m 3.020625,1045.4641 -0.2,0.04 -0.17125,0.1137 -0.11375,0.1713 -0.04,0.2 0.04,0.2012 0.11375,0.1713 0.17125,0.1137 0.2,0.04 0.20125,-0.04 0.17125,-0.1137 0.11375,-0.1713 0.04,-0.2012 -0.04,-0.2 -0.11375,-0.1713 -0.17125,-0.1137 -0.20125,-0.04"
       style="fill:#f9a70d;fill-opacity:1;fill-rule:evenodd;stroke:none"
       id="path6282" />
    <path
       inkscape:connector-curvature="0"
       d="m 6.7318751,1051.8303 0.5425,-0.1075 0.45875,-0.3075 0.3075,-0.46 0.10875,-0.5425 -0.10875,-0.5425 -0.3075,-0.4587 -0.45875,-0.3075 -0.5425,-0.1075 -0.5425,0.1075 -0.4600001,0.3075 -0.3075,0.4587 -0.1075,0.5425 0.1075,0.5425 0.3075,0.46 0.4600001,0.3075 0.5425,0.1075"
       style="fill:#f9a70d;fill-opacity:1;fill-rule:evenodd;stroke:none"
       id="path6284" />
    <path
       inkscape:connector-curvature="0"
       d="m 2.125625,1051.8303 0.5425,-0.1075 0.45875,-0.3075 0.3075,-0.46 0.10875,-0.5425 -0.10875,-0.5425 -0.3075,-0.4587 -0.45875,-0.3075 -0.5425,-0.1075 -0.5425,0.1075 -0.46,0.3075 -0.30750007,0.4587 -0.1075,0.5425 0.1075,0.5425 0.30750007,0.46 0.46,0.3075 0.5425,0.1075"
       style="fill:#f9a70d;fill-opacity:1;fill-rule:evenodd;stroke:none"
       id="path6286" />
    <path
       inkscape:connector-curvature="0"
       style="fill:none;stroke:#231f20;stroke-width:0.35374999;stroke-linecap:butt;stroke-linejoin:miter;stroke-miterlimit:3;stroke-dasharray:none;stroke-opacity:1"
       d="m 0.17687493,1052.1853 8.50374997,0 0,-7.0862 -8.50374997,0 0,7.0862 z"
       id="path5673" />
  </g>
</svg>
