<?xml version="1.0" encoding="UTF-8" standalone="no"?>
<!-- Created with Inkscape (http://www.inkscape.org/) -->

<svg
   xmlns:dc="http://purl.org/dc/elements/1.1/"
   xmlns:cc="http://creativecommons.org/ns#"
   xmlns:rdf="http://www.w3.org/1999/02/22-rdf-syntax-ns#"
   xmlns:svg="http://www.w3.org/2000/svg"
   xmlns="http://www.w3.org/2000/svg"
   xmlns:sodipodi="http://sodipodi.sourceforge.net/DTD/sodipodi-0.dtd"
   xmlns:inkscape="http://www.inkscape.org/namespaces/inkscape"
   width="16"
   height="13"
   id="svg3891"
   version="1.1"
   inkscape:version="0.48+devel r13511"
   viewBox="0 0 8.8570004 7.4400002"
   sodipodi:docname="osmc_yellow_white___MZ_yellow.svg">
  <defs
     id="defs3893" />
  <sodipodi:namedview
     id="base"
     pagecolor="#ffffff"
     bordercolor="#666666"
     borderopacity="1.0"
     inkscape:pageopacity="0.0"
     inkscape:pageshadow="2"
     inkscape:zoom="5.6"
     inkscape:cx="8.4644283"
     inkscape:cy="3.9885714"
     inkscape:document-units="px"
     inkscape:current-layer="layer1"
     showgrid="false"
     showborder="true"
     inkscape:showpageshadow="true"
     borderlayer="false"
     inkscape:window-width="767"
     inkscape:window-height="432"
     inkscape:window-x="960"
     inkscape:window-y="608"
     inkscape:window-maximized="0" />
  <metadata
     id="metadata3896">
    <rdf:RDF>
      <cc:Work
         rdf:about="">
        <dc:format>image/svg+xml</dc:format>
        <dc:type
           rdf:resource="http://purl.org/dc/dcmitype/StillImage" />
        <dc:title></dc:title>
      </cc:Work>
    </rdf:RDF>
  </metadata>
  <g
     inkscape:label="Layer 1"
     inkscape:groupmode="layer"
     id="layer1"
     transform="translate(0,-1044.9222)">
    <path
       inkscape:connector-curvature="0"
       d="m 0.17687493,1045.0978 8.50375067,0 0,7.0863 -8.50375067,0 0,-7.0863 z"
       style="fill:#ffffff;fill-opacity:1;fill-rule:nonzero;stroke:none"
       id="path6034" />
    <path
       inkscape:connector-curvature="0"
       d="m 7.9881256,1046.9466 -2.443751,-1.1963 -0.9649996,0.5025 1.9562506,0.9575 -2.2537506,1.1725 -0.6875,-1.3187 -0.77625,0.405 0.6875,1.3187 -0.77625,0.4038 -0.595,-1.1425 -0.77625,0.4037 0.595,1.1425 -1.08124997,0.5625 0.40374997,0.7763 1.08125,-0.5625 0.595,1.1425 0.77625,-0.4038 -0.595,-1.1425 0.77625,-0.4037 0.68625,1.3175 0.7762496,-0.4038 -0.6862496,-1.3187 2.2537506,-1.1738 -0.3375,2.1525 0.965,-0.5025 0.42125,-2.6887"
       style="fill:#f9a70d;fill-opacity:1;fill-rule:evenodd;stroke:none"
       id="path6240" />
    <path
       inkscape:connector-curvature="0"
       style="fill:none;stroke:#231f20;stroke-width:0.35374999;stroke-linecap:butt;stroke-linejoin:miter;stroke-miterlimit:3;stroke-dasharray:none;stroke-opacity:1"
       d="m 0.17687493,1052.1853 8.50375067,0 0,-7.0862 -8.50375067,0 0,7.0862 z"
       id="path5695" />
  </g>
</svg>
